# xmcd CD database file
#
# Track frame offsets:
#	150
#	15730
#	29725
#	44645
#	57995
#	73638
#	88075
#	102525
#	118038
#	132073
#	146393
#	160715
#	175113
#	188965
#	204490
#	219750
#	234105
#	262970
#	276448
#	292045
#
# Disc length: 4104 seconds
#
# Revision: 3
# Processed by: cddbd v1.5.2PL0 Copyright (c) Steve Scherf et al.
# Submitted via: CDex 1.51
#
DISCID=29100614
DTITLE=Bessie Smith - Empression of the Blues
DYEAR=1993
DGENRE=Blues
TTITLE0=Down Hearted Blues (1923)
TTITLE1=Gulf Coast Blues (1923)
TTITLE2=Aggravatin' Papa (1923)
TTITLE3=Baby Won't You Please Come Home (1923)
TTITLE4='Tain't Nobody's Bizness If I Do (1923)
TTITLE5=Whoa, Tillie, Take Your Time (1923)
TTITLE6=My Sweetie Went Away (1923)
TTITLE7=Any Woman's Blues (1923)
TTITLE8=House Rent Blues (1924)
TTITLE9=Weeping Willowe Blues (1924)
TTITLE10=Sinful Blues (1924)
TTITLE11=St. Louis Blues (1925)
TTITLE12=Reckless Blues (1925)
TTITLE13=Careless Love Blues (1925)
TTITLE14=I Ain't Gonna Play No Secode Fiddle (1925)
TTITLE15=I Ain't Got Nobody (1925)
TTITLE16=Empty Bed Blues (Parts 1 and 2) (1928)
TTITLE17=Nobody Knows You When You're Down and Out (1929)
TTITLE18=Do Your Duty (1933)
TTITLE19=Gimme a Pig Foot (1933)
EXTD=YEAR: 1993
EXTT0=
EXTT1=
EXTT2=
EXTT3=
EXTT4=
EXTT5=
EXTT6=
EXTT7=
EXTT8=
EXTT9=
EXTT10=
EXTT11=
EXTT12=
EXTT13=
EXTT14=
EXTT15=
EXTT16=
EXTT17=
EXTT18=
EXTT19=
PLAYORDER=
